# Blender 3.3.1
# www.blender.org
mtllib MuzzleRifle1.mtl
o Plane
v -0.500000 0.000000 0.000000
v 0.500000 0.000000 0.000000
v -0.500000 0.000000 -2.000000
v 0.500000 0.000000 -2.000000
v 0.000000 0.500000 -0.000000
v 0.000000 -0.500000 -0.000000
v 0.000000 0.500000 -2.000000
v 0.000000 -0.500000 -2.000000
v 0.006179 0.307638 -0.006528
v 0.006179 -0.307638 -0.006528
v 0.538907 0.307638 -0.314369
v 0.538907 -0.307638 -0.314369
v -0.006179 -0.307638 -0.006528
v -0.006179 0.307638 -0.006528
v -0.538907 -0.307638 -0.314369
v -0.538907 0.307638 -0.314369
v 0.307638 -0.006179 -0.006528
v -0.307638 -0.006179 -0.006528
v 0.307638 -0.538907 -0.314369
v -0.307638 -0.538907 -0.314369
v -0.307638 0.006179 -0.006528
v 0.307638 0.006179 -0.006528
v -0.307638 0.538907 -0.314369
v 0.307638 0.538907 -0.314369
vn -0.0000 1.0000 -0.0000
vn 1.0000 -0.0000 -0.0000
vn 0.5003 -0.0000 0.8658
vn -0.5003 -0.0000 0.8658
vn -0.0000 -0.5003 0.8658
vn -0.0000 0.5003 0.8658
vt 0.142651 0.436738
vt 0.127188 0.063930
vt 0.841562 0.414585
vt 0.826099 0.041777
vt 0.161133 0.466422
vt 0.168363 0.068018
vt 0.831637 0.461278
vt 0.838867 0.062875
vt 0.234053 0.491865
vt 0.722978 0.491865
vt 0.234053 0.980791
vt 0.722978 0.980791
vt 0.234053 0.491865
vt 0.722978 0.491865
vt 0.234053 0.980791
vt 0.722978 0.980791
vt 0.234053 0.491865
vt 0.722978 0.491865
vt 0.234053 0.980791
vt 0.722978 0.980791
vt 0.234053 0.491865
vt 0.722978 0.491865
vt 0.234053 0.980791
vt 0.722978 0.980791
s 0
usemtl Material.001
f 1/1/1 2/2/1 4/4/1 3/3/1
f 5/5/2 6/6/2 8/8/2 7/7/2
f 9/9/3 10/10/3 12/12/3 11/11/3
f 13/13/4 14/14/4 16/16/4 15/15/4
f 17/17/5 18/18/5 20/20/5 19/19/5
f 21/21/6 22/22/6 24/24/6 23/23/6
